<svg width="182" height="164" viewBox="0 0 182 164" fill="none" xmlns="http://www.w3.org/2000/svg">
<path d="M92.5697 105.886L94.0377 106.194L92.5697 105.886ZM0.382913 163.762L5.06071 147.085L17.1644 159.474L0.382913 163.762ZM181.425 -1.3078C181.098 -0.323515 180.773 0.645569 180.448 1.59968L177.608 0.632396C177.93 -0.314133 178.254 -1.27577 178.578 -2.25274L181.425 -1.3078ZM178.508 7.14668C177.819 9.06254 177.134 10.9121 176.453 12.6975L173.65 11.6283C174.324 9.86178 175.002 8.03051 175.684 6.13213L178.508 7.14668ZM174.323 18.104C173.54 20.0271 172.762 21.8671 171.988 23.6275L169.242 22.4205C170.004 20.6865 170.772 18.8717 171.545 16.9725L174.323 18.104ZM169.54 28.9688C168.662 30.8043 167.789 32.5399 166.922 34.1808L164.269 32.7792C165.117 31.1755 165.972 29.4755 166.834 27.6734L169.54 28.9688ZM163.988 39.4154C162.906 41.23 161.833 42.9035 160.767 44.4466L158.299 42.7419C159.323 41.258 160.361 39.641 161.411 37.8792L163.988 39.4154ZM157.167 49.2152C155.783 50.8794 154.412 52.3388 153.05 53.6172L150.997 51.4304C152.26 50.2434 153.548 48.875 154.86 47.2973L157.167 49.2152ZM148.245 57.4447C146.397 58.663 144.574 59.5839 142.778 60.2744L141.702 57.4741C143.295 56.8616 144.925 56.04 146.593 54.94L148.245 57.4447ZM136.802 61.8269C134.709 62.1359 132.679 62.2172 130.728 62.2079L130.743 59.2079C132.603 59.2168 134.471 59.1385 136.364 58.8591L136.802 61.8269ZM124.824 62.0293C122.841 61.9663 120.975 61.9577 119.179 62.1529L118.855 59.1705C120.867 58.9518 122.903 58.9668 124.92 59.0308L124.824 62.0293ZM113.995 63.5019C112.52 64.1698 111.062 65.1282 109.616 66.5088L107.545 64.3386C109.226 62.7334 110.964 61.5813 112.757 60.7692L113.995 63.5019ZM106.091 70.8129C105.172 72.202 104.257 73.812 103.347 75.6784L100.65 74.3636C101.609 72.3971 102.588 70.671 103.589 69.1577L106.091 70.8129ZM101.074 80.9238C100.428 82.5891 99.7856 84.3989 99.1482 86.3656L96.2943 85.4406C96.9473 83.4259 97.608 81.5622 98.277 79.8385L101.074 80.9238ZM97.4722 91.9436C96.9697 93.7421 96.4705 95.6464 95.9744 97.6629L93.0612 96.9462C93.5642 94.9019 94.0713 92.9673 94.5828 91.1364L97.4722 91.9436ZM94.6794 103.218C94.4648 104.187 94.2509 105.179 94.0377 106.194L91.1018 105.577C91.3172 104.552 91.5333 103.55 91.7502 102.57L94.6794 103.218ZM94.0377 106.194C93.8066 107.293 93.5039 108.355 93.1335 109.381L90.3117 108.363C90.6348 107.468 90.8994 106.54 91.1018 105.577L94.0377 106.194ZM90.072 115.211C88.8383 116.957 87.3838 118.572 85.7478 120.077L83.7162 117.87C85.2184 116.487 86.5266 115.03 87.6218 113.48L90.072 115.211ZM80.698 124.046C78.9997 125.202 77.1841 126.296 75.2739 127.342L73.8326 124.711C75.6737 123.703 77.4048 122.659 79.0098 121.566L80.698 124.046ZM69.6539 130.179C67.8033 131.046 65.8889 131.888 63.926 132.715L62.762 129.95C64.6967 129.135 66.5738 128.31 68.3808 127.463L69.6539 130.179ZM58.1397 135.065C56.2345 135.816 54.2962 136.562 52.3383 137.312L51.2662 134.51C53.2208 133.762 55.1483 133.019 57.0396 132.274L58.1397 135.065ZM46.5432 139.526C44.6248 140.262 42.6977 141.007 40.7703 141.77L39.6666 138.98C41.6077 138.212 43.5456 137.463 45.4689 136.725L46.5432 139.526ZM35.0493 144.094C33.1522 144.888 31.2657 145.706 29.3986 146.553L28.1592 143.821C30.0572 142.959 31.9711 142.13 33.8906 141.327L35.0493 144.094ZM23.8499 149.197C22.0133 150.12 20.2072 151.079 18.441 152.081L16.9601 149.472C18.7753 148.442 20.6267 147.459 22.5034 146.516L23.8499 149.197ZM13.2236 155.257C11.5118 156.377 9.85257 157.55 8.25565 158.781L6.42413 156.405C8.0874 155.122 9.81009 153.906 11.5806 152.747L13.2236 155.257Z" fill="url(#paint0_linear_24_649)"/>
<defs>
<linearGradient id="paint0_linear_24_649" x1="43.3836" y1="-9.44379" x2="32.3498" y2="165.775" gradientUnits="userSpaceOnUse">
<stop stop-color="#FED7AA" stop-opacity="0"/>
<stop offset="1" stop-color="#FED7AA"/>
</linearGradient>
</defs>
</svg>
