<svg width="375" height="331" viewBox="0 0 375 331" fill="none" xmlns="http://www.w3.org/2000/svg">
<path d="M255.325 110.111L256.681 110.794L255.325 110.111ZM71.3245 176.594L64.8403 159.752L81.594 163.361L71.3245 176.594ZM449.781 -53.2501C449.286 -52.3278 448.793 -51.4137 448.302 -50.5077L445.732 -52.1741C446.221 -53.0766 446.712 -53.9873 447.205 -54.9062L449.781 -53.2501ZM445.38 -45.1694C444.414 -43.4223 443.456 -41.7072 442.505 -40.0236L439.958 -41.7332C440.905 -43.4093 441.859 -45.1171 442.821 -46.8571L445.38 -45.1694ZM439.675 -35.0668C438.636 -33.2668 437.606 -31.5049 436.585 -29.7804L434.067 -31.5394C435.083 -33.2549 436.107 -35.008 437.141 -36.7994L439.675 -35.0668ZM433.517 -24.664C432.503 -22.9962 431.499 -21.3659 430.503 -19.7723L428.02 -21.5884C429.009 -23.172 430.008 -24.7926 431.015 -26.4509L433.517 -24.664ZM427.282 -14.6955C426.181 -12.9865 425.09 -11.3231 424.011 -9.70418L421.572 -11.5894C422.643 -13.196 423.726 -14.8474 424.82 -16.5447L427.282 -14.6955ZM420.805 -4.97993C419.627 -3.27428 418.461 -1.62247 417.309 -0.0229816L414.927 -1.99011C416.068 -3.5745 417.223 -5.21156 418.392 -6.90287L420.805 -4.97993ZM413.83 4.70015C412.629 6.29451 411.441 7.83117 410.268 9.31196L407.961 7.2452C409.12 5.78227 410.294 4.26307 411.483 2.68567L413.83 4.70015ZM406.491 13.9444C405.223 15.455 403.971 16.8993 402.735 18.28L400.533 16.0888C401.749 14.7302 402.983 13.3074 404.234 11.8178L406.491 13.9444ZM398.642 22.6815C397.255 24.1155 395.888 25.4684 394.541 26.7439L392.493 24.3944C393.81 23.1469 395.15 21.8215 396.511 20.4143L398.642 22.6815ZM390.128 30.7088C388.569 32.0334 387.036 33.2539 385.528 34.3767L383.719 31.8267C385.179 30.7392 386.667 29.554 388.186 28.2641L390.128 30.7088ZM380.769 37.656C379.013 38.7667 377.292 39.7454 375.602 40.6032L374.172 37.8182C375.785 36.9994 377.434 36.0617 379.124 34.993L380.769 37.656ZM370.161 43.0017C368.219 43.7275 366.32 44.2972 364.46 44.7305L363.625 41.729C365.371 41.3219 367.162 40.7854 369 40.0985L370.161 43.0017ZM358.535 45.6852C356.466 45.8719 354.451 45.9025 352.483 45.8109L352.393 42.742C354.242 42.8282 356.131 42.7992 358.069 42.6245L358.535 45.6852ZM346.425 45.1546C344.384 44.8149 342.395 44.3725 340.453 43.8723L340.945 40.8917C342.824 41.3755 344.728 41.7983 346.669 42.1213L346.425 45.1546ZM334.582 42.1877C332.68 41.6002 330.636 40.9413 328.81 40.3746L329.441 37.4335C331.413 38.0452 333.21 38.6277 335.21 39.2455L334.582 42.1877ZM323.093 38.7349C321.17 38.2485 319.278 37.8559 317.398 37.6083L317.545 34.5607C319.565 34.8267 321.572 35.2449 323.573 35.7512L323.093 38.7349ZM311.764 37.3524C309.961 37.444 308.151 37.7188 306.322 38.2258L305.379 35.2515C307.408 34.6893 309.413 34.3852 311.404 34.2841L311.764 37.3524ZM301.208 40.2562C299.678 41.0527 298.12 42.0373 296.53 43.2406L294.704 40.7023C296.404 39.4168 298.085 38.3521 299.754 37.4833L301.208 40.2562ZM292.298 46.8994C291.032 48.1306 289.745 49.5055 288.433 51.0375L286.192 48.8916C287.551 47.3027 288.894 45.8676 290.223 44.5748L292.298 46.8994ZM284.822 55.5813C283.727 57.0568 282.616 58.642 281.487 60.3437L279.044 58.464C280.198 56.7248 281.337 55.0998 282.463 53.5828L284.822 55.5813ZM278.411 65.2002C277.416 66.8425 276.408 68.5745 275.385 70.4005L272.833 68.6995C273.87 66.8473 274.895 65.0876 275.908 63.4164L278.411 65.2002ZM272.662 75.4223C271.758 77.1414 270.844 78.9329 269.918 80.7996L267.3 79.2238C268.235 77.3383 269.16 75.527 270.074 73.7873L272.662 75.4223ZM267.391 86.0196C266.569 87.7591 265.738 89.557 264.898 91.4149L262.236 89.9316C263.083 88.0598 263.921 86.2474 264.75 84.4928L267.391 86.0196ZM262.449 96.9409C261.699 98.6677 260.941 100.442 260.176 102.264L257.483 100.852C258.253 99.0194 259.015 97.2345 259.77 95.4964L262.449 96.9409ZM257.857 107.877C257.467 108.837 257.075 109.809 256.681 110.794L253.969 109.428C254.365 108.438 254.759 107.461 255.152 106.496L257.857 107.877ZM256.681 110.794C256.284 111.784 255.842 112.737 255.354 113.655L252.772 112.009C253.212 111.181 253.612 110.322 253.969 109.428L256.681 110.794ZM251.892 118.756C250.589 120.294 249.129 121.698 247.53 122.979L245.646 120.486C247.123 119.303 248.458 118.017 249.642 116.62L251.892 118.756ZM242.556 126.342C240.876 127.303 239.094 128.174 237.22 128.965L235.956 126.102C237.744 125.348 239.432 124.522 241.011 123.619L242.556 126.342ZM231.659 131.003C229.83 131.584 227.935 132.108 225.979 132.582L225.121 129.586C227.023 129.125 228.858 128.617 230.622 128.057L231.659 131.003ZM220.221 133.806C218.326 134.158 216.387 134.472 214.408 134.754L213.803 131.709C215.748 131.432 217.65 131.124 219.503 130.78L220.221 133.806ZM208.556 135.485C206.625 135.695 204.664 135.881 202.676 136.045L202.229 132.983C204.196 132.82 206.134 132.637 208.039 132.429L208.556 135.485ZM196.776 136.471C194.832 136.593 192.868 136.699 190.888 136.792L190.538 133.724C192.506 133.631 194.456 133.525 196.384 133.405L196.776 136.471ZM185 137.037C183.044 137.107 181.076 137.17 179.1 137.226L178.801 134.156C180.771 134.099 182.732 134.037 184.68 133.967L185 137.037ZM173.199 137.382C171.239 137.43 169.274 137.476 167.309 137.522L167.024 134.451C168.99 134.405 170.953 134.359 172.911 134.311L173.199 137.382ZM161.419 137.665C159.454 137.715 157.492 137.768 155.535 137.828L155.231 134.757C157.193 134.698 159.161 134.644 161.129 134.594L161.419 137.665ZM149.667 138.03C147.701 138.106 145.744 138.192 143.801 138.29L143.442 135.222C145.397 135.123 147.365 135.037 149.34 134.96L149.667 138.03ZM137.945 138.629C135.983 138.759 134.038 138.905 132.116 139.07L131.661 136.009C133.603 135.841 135.565 135.694 137.544 135.563L137.945 138.629ZM126.326 139.639C124.374 139.856 122.452 140.098 120.563 140.368L119.956 137.324C121.876 137.049 123.826 136.804 125.802 136.584L126.326 139.639ZM114.832 141.297C112.903 141.65 111.017 142.039 109.179 142.467L108.342 139.466C110.226 139.027 112.155 138.629 114.122 138.269L114.832 141.297ZM103.631 143.933C101.766 144.489 99.9641 145.096 98.2313 145.759L97.0504 142.863C98.8511 142.174 100.717 141.546 102.64 140.973L103.631 143.933ZM93.0413 148.024C91.319 148.88 89.6878 149.807 88.155 150.813L86.473 148.174C88.1007 147.106 89.8234 146.127 91.6309 145.229L93.0413 148.024ZM83.7038 154.209C82.2967 155.461 81.0093 156.809 79.8498 158.261L77.5495 156.186C78.8096 154.608 80.2028 153.15 81.7163 151.804L83.7038 154.209ZM76.7524 162.956C75.8762 164.591 75.1279 166.337 74.5172 168.205L71.7412 167.016C72.4047 164.987 73.2196 163.084 74.1757 161.301L76.7524 162.956Z" fill="url(#paint0_linear_24_815)"/>
<defs>
<linearGradient id="paint0_linear_24_815" x1="208.842" y1="-134.606" x2="98.5631" y2="185.964" gradientUnits="userSpaceOnUse">
<stop stop-color="#FED7AA" stop-opacity="0"/>
<stop offset="1" stop-color="#F97316"/>
</linearGradient>
</defs>
</svg>
