<svg width="161" height="86" viewBox="0 0 161 86" fill="none" xmlns="http://www.w3.org/2000/svg">
<path d="M72.1051 35.9927L72.2839 34.5034L72.1051 35.9927ZM0.135418 85.6061L17.4559 85.6513L8.83482 70.6288L0.135418 85.6061ZM186.914 1.09993C185.865 1.07107 184.832 1.04637 183.816 1.02575L183.755 4.02514C184.764 4.0456 185.789 4.07013 186.832 4.0988L186.914 1.09993ZM177.917 0.950416C175.83 0.940318 173.821 0.949122 171.886 0.976L171.927 3.97571C173.843 3.94911 175.834 3.94037 177.902 3.95038L177.917 0.950416ZM165.985 1.12114C163.915 1.19575 161.94 1.29358 160.055 1.41337L160.246 4.40732C162.101 4.28939 164.048 4.19288 166.093 4.1192L165.985 1.12114ZM154.04 1.89849C151.922 2.10885 149.937 2.35167 148.077 2.62456L148.512 5.5928C150.322 5.32726 152.26 5.08996 154.336 4.8838L154.04 1.89849ZM142.16 3.67684C140.028 4.13159 138.098 4.6363 136.348 5.18577L137.247 8.04796C138.896 7.52992 140.735 7.04834 142.786 6.61085L142.16 3.67684ZM130.567 7.45769C128.455 8.49615 126.725 9.63378 125.296 10.851L127.242 13.1345C128.46 12.0965 129.976 11.0912 131.891 10.15L130.567 7.45769ZM121.201 15.7437C120.071 17.7015 119.388 19.6913 118.843 21.5654L121.724 22.4025C122.242 20.6197 122.846 18.8958 123.799 17.2437L121.201 15.7437ZM117.2 27.1483C116.57 28.8467 115.76 30.3172 114.455 31.5616L116.526 33.7327C118.266 32.0729 119.284 30.1555 120.012 28.192L117.2 27.1483ZM109.931 34.2156C108.461 34.7488 106.676 35.1933 104.492 35.5188L104.934 38.486C107.272 38.1376 109.258 37.651 110.954 37.0358L109.931 34.2156ZM98.6897 36.0456C96.921 36.1226 94.9803 36.1446 92.8489 36.1059L92.7944 39.1054C94.9787 39.1451 96.9818 39.1228 98.8202 39.0428L98.6897 36.0456ZM86.9731 35.871C85.1428 35.7626 83.2007 35.6182 81.1393 35.4358L80.8748 38.4241C82.9625 38.6089 84.9337 38.7555 86.7956 38.8658L86.9731 35.871ZM75.3396 34.8561C74.3451 34.7462 73.3267 34.6287 72.2839 34.5034L71.9262 37.482C72.978 37.6084 74.0058 37.7269 75.0101 37.8379L75.3396 34.8561ZM72.2839 34.5034C71.1392 34.3659 70.0148 34.2959 68.909 34.2896L68.8921 37.2896C69.8823 37.2952 70.8928 37.3579 71.9262 37.482L72.2839 34.5034ZM62.2074 35.0542C60.0236 35.5708 57.9219 36.3343 55.8834 37.2998L57.1675 40.0111C59.0373 39.1255 60.9405 38.4367 62.898 37.9736L62.2074 35.0542ZM50.1428 40.6175C48.3729 41.819 46.6367 43.1556 44.9196 44.5945L46.8465 46.8939C48.5027 45.506 50.1577 44.2333 51.8277 43.0996L50.1428 40.6175ZM40.084 48.9273C38.5515 50.3783 37.018 51.8933 35.4743 53.4488L37.6038 55.562C39.1347 54.0193 40.6445 52.5279 42.1466 51.1057L40.084 48.9273ZM30.976 58.0373C29.5049 59.5463 28.0158 61.0729 26.4957 62.6043L28.6248 64.7178C30.1558 63.1754 31.6539 61.6397 33.1241 60.1315L30.976 58.0373ZM21.9577 67.077C20.4412 68.5322 18.8904 69.9751 17.2968 71.3919L19.2901 73.6339C20.9171 72.1875 22.4961 70.7181 24.0348 69.2415L21.9577 67.077ZM12.4632 75.4832C10.8313 76.7921 9.15261 78.063 7.41979 79.2833L9.14713 81.7361C10.9358 80.4764 12.6645 79.1675 14.3403 77.8234L12.4632 75.4832Z" fill="url(#paint0_linear_24_719)"/>
<defs>
<linearGradient id="paint0_linear_24_719" x1="162.56" y1="100.311" x2="5.63053" y2="62.686" gradientUnits="userSpaceOnUse">
<stop stop-color="#FED7AA" stop-opacity="0"/>
<stop offset="1" stop-color="#FED7AA"/>
</linearGradient>
</defs>
</svg>
