<svg width="151" height="365" viewBox="0 0 151 365" fill="none" xmlns="http://www.w3.org/2000/svg">
<path d="M50.3473 222.216L48.8704 221.954L50.3473 222.216ZM136.914 364.238L150.611 353.636L134.582 347.075L136.914 364.238ZM-2.3302 0.495527C-2.41749 1.53663 -2.50212 2.56902 -2.5841 3.59279L0.406321 3.83228C0.488007 2.81227 0.572327 1.7836 0.659306 0.746172L-2.3302 0.495527ZM-3.0446 9.63251C-3.18769 11.6117 -3.32045 13.5569 -3.44308 15.4689L-0.449228 15.661C-0.327132 13.7572 -0.194931 11.8201 -0.0524107 9.84884L-3.0446 9.63251ZM-3.7887 21.2485C-3.9036 23.3246 -4.00594 25.3595 -4.09603 27.354L-1.09908 27.4893C-1.00947 25.5053 -0.907641 23.4806 -0.793287 21.4142L-3.7887 21.2485ZM-4.3298 33.2169C-4.39808 35.2018 -4.45351 37.1442 -4.49641 39.0452L-1.49718 39.1129C-1.45455 37.2241 -1.39946 35.2935 -1.33157 33.3201L-4.3298 33.2169ZM-4.59259 45.1264C-4.61 47.1049 -4.61289 49.0352 -4.60171 50.9186L-1.60176 50.9008C-1.61286 49.0326 -1.60999 47.1171 -1.59271 45.1528L-4.59259 45.1264ZM-4.51469 56.9466C-4.46735 58.9769 -4.40234 60.9483 -4.32029 62.8627L-1.32304 62.7342C-1.40422 60.8402 -1.4686 58.8883 -1.5155 56.8766L-4.51469 56.9466ZM-4.00199 68.7705C-3.86728 70.8282 -3.71103 72.8138 -3.53419 74.73L-0.546889 74.4543C-0.721164 72.5659 -0.875344 70.6069 -1.0084 68.5745L-4.00199 68.7705ZM-2.89851 80.6338C-2.64525 82.6753 -2.36592 84.6291 -2.06189 86.4994L0.899239 86.0181C0.601602 84.1871 0.327543 82.2707 0.0786657 80.2645L-2.89851 80.6338ZM-0.955731 92.4459C-0.526332 94.4765 -0.0633797 96.3941 0.430798 98.206L3.32508 97.4166C2.84711 95.6641 2.39758 93.803 1.97936 91.8252L-0.955731 92.4459ZM2.19999 103.891C2.92087 105.928 3.68935 107.804 4.50067 109.536L7.21729 108.263C6.45043 106.626 5.71861 104.841 5.02805 102.89L2.19999 103.891ZM7.41307 114.881C8.57814 116.719 9.80426 118.341 11.0801 119.782L13.326 117.793C12.1598 116.476 11.0293 114.982 9.94687 113.275L7.41307 114.881ZM15.602 124.034C17.2919 125.35 19.0243 126.438 20.771 127.366L22.1784 124.716C20.5648 123.859 18.9815 122.864 17.4453 121.668L15.602 124.034ZM26.3296 129.856C28.2365 130.585 30.1374 131.215 31.9683 131.824L32.9153 128.978C31.0719 128.365 29.2352 127.755 27.4009 127.054L26.3296 129.856ZM37.4687 133.767C39.268 134.479 40.9631 135.267 42.5391 136.231L44.1041 133.672C42.3352 132.59 40.4722 131.729 38.5719 130.978L37.4687 133.767ZM46.8218 139.673C47.9836 140.905 49.052 142.36 50.0024 144.114L52.64 142.684C51.5694 140.709 50.3495 139.041 49.0042 137.615L46.8218 139.673ZM52.1523 149.273C52.6737 150.924 53.1248 152.761 53.4947 154.813L56.4471 154.28C56.0572 152.118 55.5771 150.155 55.0129 148.369L52.1523 149.273ZM54.2539 160.514C54.4204 162.322 54.5367 164.259 54.599 166.335L57.5976 166.246C57.5337 164.113 57.4139 162.115 57.2413 160.239L54.2539 160.514ZM54.6324 172.307C54.6026 174.111 54.5384 176.002 54.4381 177.987L57.4342 178.139C57.5361 176.122 57.6016 174.197 57.632 172.357L54.6324 172.307ZM54.051 183.924C53.9049 185.777 53.7313 187.7 53.5291 189.698L56.5138 190C56.7182 187.982 56.8938 186.036 57.0417 184.16L54.051 183.924ZM52.8713 195.618C52.6481 197.472 52.4027 199.383 52.1343 201.354L55.1069 201.758C55.3772 199.773 55.6246 197.846 55.8498 195.976L52.8713 195.618ZM51.2705 207.377C50.9963 209.201 50.7041 211.072 50.3935 212.991L53.355 213.47C53.6673 211.541 53.9612 209.659 54.2372 207.823L51.2705 207.377ZM49.4063 218.893C49.2324 219.901 49.0538 220.921 48.8704 221.954L51.8243 222.478C52.0084 221.441 52.1879 220.416 52.3626 219.403L49.4063 218.893ZM48.8704 221.954C48.6861 222.993 48.5543 224.025 48.4732 225.052L51.4639 225.288C51.5374 224.358 51.6568 223.422 51.8243 222.478L48.8704 221.954ZM48.5873 231.235C48.8228 233.277 49.2496 235.289 49.8463 237.272L52.7192 236.408C52.1701 234.583 51.7814 232.745 51.5675 230.891L48.5873 231.235ZM52.0504 242.983C52.8972 244.786 53.8742 246.565 54.9642 248.325L57.5145 246.745C56.4785 245.073 55.5582 243.394 54.7656 241.707L52.0504 242.983ZM58.3859 253.317C59.5668 254.893 60.8305 256.456 62.1647 258.007L64.4391 256.051C63.1435 254.545 61.9227 253.034 60.7866 251.518L58.3859 253.317ZM66.1948 262.447C67.5486 263.868 68.9546 265.281 70.4032 266.688L72.4935 264.536C71.0689 263.152 69.6905 261.767 68.3664 260.377L66.1948 262.447ZM74.7388 270.774C76.1854 272.101 77.6632 273.424 79.1642 274.745L81.1456 272.492C79.6575 271.183 78.1954 269.874 76.7665 268.563L74.7388 270.774ZM83.6504 278.631C85.1452 279.909 86.6554 281.187 88.1735 282.463L90.1045 280.167C88.5904 278.894 87.0868 277.622 85.6001 276.351L83.6504 278.631ZM92.7121 286.267C94.2246 287.532 95.7377 288.797 97.246 290.065L99.1765 287.769C97.6647 286.498 96.1488 285.23 94.6368 283.966L92.7121 286.267ZM101.755 293.882C103.258 295.165 104.747 296.45 106.218 297.74L108.196 295.484C106.713 294.184 105.213 292.89 103.703 291.6L101.755 293.882ZM110.611 301.663C112.074 302.995 113.508 304.333 114.907 305.676L116.985 303.512C115.564 302.149 114.111 300.793 112.632 299.446L110.611 301.663ZM119.072 309.808C120.452 311.226 121.785 312.652 123.063 314.086L125.303 312.091C123.993 310.62 122.63 309.162 121.222 307.716L119.072 309.808ZM126.825 318.544C128.054 320.089 129.211 321.644 130.285 323.211L132.759 321.514C131.641 319.884 130.442 318.272 129.173 316.676L126.825 318.544ZM133.344 328.112C134.3 329.815 135.15 331.531 135.882 333.261L138.645 332.092C137.865 330.25 136.966 328.435 135.96 326.644L133.344 328.112ZM137.758 338.647C138.259 340.484 138.621 342.341 138.832 344.22L141.813 343.886C141.584 341.846 141.192 339.837 140.653 337.858L137.758 338.647ZM139.001 349.87C138.904 351.71 138.658 353.578 138.249 355.476L141.182 356.107C141.624 354.055 141.891 352.029 141.996 350.027L139.001 349.87Z" fill="url(#paint0_linear_24_396)"/>
<defs>
<linearGradient id="paint0_linear_24_396" x1="182.194" y1="57.2435" x2="93.9588" y2="351.351" gradientUnits="userSpaceOnUse">
<stop stop-color="#FED7AA" stop-opacity="0"/>
<stop offset="1" stop-color="#FED7AA"/>
</linearGradient>
</defs>
</svg>
