<svg width="97" height="90" viewBox="0 0 97 90" fill="none" xmlns="http://www.w3.org/2000/svg">
<path d="M37.3264 43.7343L37.0061 42.2504L37.3264 43.7343ZM5.85501 89.6511L17.7117 78.1311L0.789355 72.7483L5.85501 89.6511ZM95.8837 0.827325C94.8869 1.06943 93.9182 1.31215 92.9768 1.55543L93.972 4.45533C94.8996 4.21561 95.855 3.97623 96.8389 3.73725L95.8837 0.827325ZM87.3739 3.10311C85.3877 3.69094 83.5478 4.28184 81.8434 4.87538L83.0578 7.70892C84.7171 7.13109 86.5151 6.5535 88.4632 5.97693L87.3739 3.10311ZM76.458 6.94433C74.4594 7.79641 72.7058 8.65465 71.1682 9.5185L72.82 12.1551C74.2609 11.3456 75.9249 10.5298 77.8462 9.71069L76.458 6.94433ZM66.2962 12.8351C64.5044 14.3523 63.2385 15.892 62.3622 17.4515L65.0206 19.0824C65.7235 17.8314 66.7764 16.5269 68.3621 15.1843L66.2962 12.8351ZM60.6289 23.496C60.4862 25.602 60.7177 27.8288 60.7503 29.5016L63.7584 29.7108C63.7181 27.6386 63.4977 25.9259 63.6309 23.9604L60.6289 23.496ZM59.7764 34.3229C59.1324 35.3958 58.0309 36.483 56.0883 37.5314L57.7003 40.19C59.9571 38.972 61.4548 37.5884 62.3966 36.0196L59.7764 34.3229ZM51.0629 39.5291C49.4847 40.0057 47.6562 40.4594 45.5382 40.8863L46.3845 43.8205C48.5723 43.3794 50.489 42.9053 52.167 42.3984L51.0629 39.5291ZM39.9412 41.8489C39.0042 41.9867 38.0264 42.1206 37.0061 42.2504L37.6468 45.2182C38.6847 45.0862 39.6812 44.9498 40.6379 44.8091L39.9412 41.8489ZM37.0061 42.2504C35.935 42.3866 34.893 42.5722 33.8789 42.8093L34.8106 45.7249C35.7247 45.5111 36.6694 45.3426 37.6468 45.2182L37.0061 42.2504ZM27.957 44.9522C26.1279 45.8822 24.4171 47.0366 22.8108 48.4252L24.8972 50.7568C26.3487 49.5021 27.8819 48.4695 29.5107 47.6413L27.957 44.9522ZM18.6121 52.8852C17.4289 54.4044 16.31 56.0893 15.2459 57.9446L17.8927 59.5959C18.9027 57.8349 19.9537 56.2549 21.052 54.8447L18.6121 52.8852ZM12.5138 63.3381C11.7287 65.0828 10.9726 66.9436 10.2407 68.9237L13.0766 70.1703C13.7895 68.2415 14.5225 66.4387 15.2793 64.7568L12.5138 63.3381ZM8.3004 74.6261C7.72165 76.4676 7.15659 78.3962 6.60268 80.4141L9.51071 81.4361C10.0567 79.4472 10.6123 77.5511 11.18 75.7448L8.3004 74.6261Z" fill="url(#paint0_linear_24_811)"/>
<defs>
<linearGradient id="paint0_linear_24_811" x1="101.395" y1="74.0411" x2="5.22292" y2="81.4795" gradientUnits="userSpaceOnUse">
<stop stop-color="#FED7AA" stop-opacity="0"/>
<stop offset="1" stop-color="#F97316"/>
</linearGradient>
</defs>
</svg>
