<svg width="151" height="365" viewBox="0 0 151 365" fill="none" xmlns="http://www.w3.org/2000/svg">
<path d="M55.3481 222.216L53.8712 221.954L55.3481 222.216ZM141.915 364.238L150.251 349.055L132.934 349.427L141.915 364.238ZM2.67053 0.495283C2.58324 1.53638 2.49862 2.56878 2.41663 3.59255L5.40705 3.83203C5.48874 2.81203 5.57306 1.78335 5.66004 0.745928L2.67053 0.495283ZM1.95613 9.63226C1.81304 11.6114 1.68028 13.5567 1.55766 15.4687L4.5515 15.6607C4.6736 13.757 4.8058 11.8198 4.94832 9.8486L1.95613 9.63226ZM1.21203 21.2482C1.09713 23.3244 0.994788 25.3593 0.904706 27.3537L3.90165 27.4891C3.99126 25.5051 4.09309 23.4803 4.20745 21.414L1.21203 21.2482ZM0.670936 33.2167C0.602652 35.2016 0.547224 37.144 0.504321 39.0449L3.50356 39.1126C3.54619 37.2239 3.60127 35.2933 3.66916 33.3198L0.670936 33.2167ZM0.408142 45.1262C0.390735 47.1047 0.387839 49.035 0.399025 50.9184L3.39897 50.9006C3.38788 49.0324 3.39074 47.1168 3.40803 45.1526L0.408142 45.1262ZM0.486044 56.9463C0.533383 58.9767 0.598392 60.9481 0.680444 62.8625L3.67769 62.734C3.59651 60.8399 3.53213 58.888 3.48523 56.8764L0.486044 56.9463ZM0.998739 68.7703C1.13346 70.828 1.2897 72.8135 1.46654 74.7298L4.45384 74.4541C4.27957 72.5656 4.12539 70.6067 3.99233 68.5743L0.998739 68.7703ZM2.10222 80.6336C2.35548 82.6751 2.63482 84.6289 2.93884 86.4992L5.89997 86.0179C5.60234 84.1868 5.32828 82.2705 5.0794 80.2643L2.10222 80.6336ZM4.045 92.4457C4.4744 94.4763 4.93736 96.3939 5.43153 98.2058L8.32581 97.4164C7.84784 95.6639 7.39832 93.8027 6.9801 91.825L4.045 92.4457ZM7.20072 103.891C7.9216 105.927 8.69008 107.804 9.5014 109.536L12.218 108.263C11.4512 106.626 10.7193 104.841 10.0288 102.89L7.20072 103.891ZM12.4138 114.881C13.5789 116.718 14.805 118.341 16.0808 119.782L18.3268 117.793C17.1605 116.476 16.03 114.982 14.9476 113.274L12.4138 114.881ZM20.6027 124.034C22.2926 125.35 24.025 126.438 25.7718 127.366L27.1791 124.716C25.5656 123.859 23.9822 122.864 22.446 121.667L20.6027 124.034ZM31.3304 129.856C33.2372 130.585 35.1381 131.215 36.969 131.824L37.916 128.978C36.0727 128.364 34.2359 127.755 32.4016 127.054L31.3304 129.856ZM42.4694 133.767C44.2687 134.479 45.9638 135.267 47.5398 136.231L49.1048 133.671C47.336 132.59 45.473 131.729 43.5726 130.977L42.4694 133.767ZM51.8225 139.673C52.9843 140.905 54.0527 142.36 55.0031 144.113L57.6407 142.684C56.5702 140.709 55.3503 139.041 54.0049 137.614L51.8225 139.673ZM57.153 149.273C57.6744 150.923 58.1255 152.761 58.4954 154.812L61.4478 154.28C61.058 152.118 60.5779 150.155 60.0137 148.369L57.153 149.273ZM59.2547 160.514C59.4211 162.322 59.5375 164.259 59.5997 166.335L62.5984 166.245C62.5344 164.113 62.4147 162.114 62.2421 160.239L59.2547 160.514ZM59.6331 172.307C59.6033 174.11 59.5391 176.002 59.4388 177.987L62.435 178.138C62.5369 176.122 62.6023 174.196 62.6327 172.357L59.6331 172.307ZM59.0517 183.924C58.9057 185.777 58.7321 187.7 58.5298 189.698L61.5146 190C61.7189 187.981 61.8946 186.036 62.0424 184.16L59.0517 183.924ZM57.8721 195.617C57.6488 197.471 57.4034 199.383 57.1351 201.354L60.1077 201.758C60.378 199.773 60.6254 197.846 60.8505 195.976L57.8721 195.617ZM56.2712 207.377C55.997 209.201 55.7048 211.072 55.3943 212.991L58.3557 213.47C58.668 211.541 58.9619 209.659 59.2379 207.823L56.2712 207.377ZM54.407 218.893C54.2331 219.901 54.0545 220.921 53.8712 221.954L56.825 222.478C57.0092 221.441 57.1886 220.415 57.3633 219.403L54.407 218.893ZM53.8712 221.954C53.6798 223.032 53.5343 224.099 53.4329 225.156L56.4192 225.443C56.5128 224.466 56.6474 223.478 56.825 222.478L53.8712 221.954ZM53.3543 231.554C53.5105 233.713 53.8503 235.824 54.3551 237.894L57.2697 237.183C56.8029 235.27 56.4902 233.323 56.3465 231.337L53.3543 231.554ZM56.34 243.969C57.1339 245.908 58.0658 247.811 59.1174 249.682L61.7327 248.212C60.7356 246.438 59.8591 244.646 59.1163 242.832L56.34 243.969ZM62.4817 255.019C63.6605 256.711 64.9293 258.381 66.2742 260.036L68.6022 258.144C67.298 256.539 66.0744 254.928 64.9428 253.304L62.4817 255.019ZM70.3669 264.784C71.7417 266.298 73.1724 267.802 74.6479 269.302L76.7862 267.198C75.3342 265.722 73.9315 264.246 72.5873 262.767L70.3669 264.784ZM79.0703 273.665C80.5451 275.082 82.0522 276.499 83.5825 277.919L85.6225 275.719C84.1019 274.309 82.6082 272.904 81.1493 271.502L79.0703 273.665ZM88.1438 282.103C89.6572 283.481 91.1866 284.865 92.7205 286.255L94.7354 284.033C93.1991 282.64 91.6736 281.259 90.163 279.885L88.1438 282.103ZM97.2829 290.408C98.7934 291.791 100.302 293.184 101.803 294.59L103.855 292.401C102.343 290.985 100.825 289.583 99.3089 288.195L97.2829 290.408ZM106.254 298.832C107.722 300.259 109.175 301.701 110.606 303.161L112.748 301.061C111.298 299.581 109.828 298.122 108.344 296.68L106.254 298.832ZM114.827 307.601C116.211 309.106 117.565 310.63 118.882 312.178L121.167 310.234C119.822 308.654 118.442 307.1 117.035 305.57L114.827 307.601ZM122.733 316.915C123.98 318.527 125.183 320.165 126.333 321.83L128.802 320.126C127.618 318.412 126.384 316.731 125.105 315.079L122.733 316.915ZM129.632 326.937C130.676 328.672 131.66 330.439 132.576 332.239L135.25 330.879C134.299 329.011 133.281 327.183 132.202 325.39L129.632 326.937ZM135.112 337.735C135.88 339.59 136.575 341.48 137.19 343.409L140.049 342.498C139.407 340.486 138.683 338.517 137.884 336.587L135.112 337.735ZM138.77 349.235C139.205 351.174 139.559 353.154 139.825 355.175L142.8 354.782C142.521 352.671 142.151 350.604 141.697 348.579L138.77 349.235Z" fill="url(#paint0_linear_24_134)"/>
<defs>
<linearGradient id="paint0_linear_24_134" x1="187.195" y1="57.2433" x2="98.9596" y2="351.351" gradientUnits="userSpaceOnUse">
<stop stop-color="#FED7AA" stop-opacity="0"/>
<stop offset="1" stop-color="#FED7AA"/>
</linearGradient>
</defs>
</svg>
