<svg width="265" height="194" viewBox="0 0 265 194" fill="none" xmlns="http://www.w3.org/2000/svg">
<path d="M139.554 112.038L141.022 112.346L139.554 112.038ZM9.38289 193.761L-0.00262176 179.204L17.297 178.354L9.38289 193.761ZM264.435 -39.5183C264.102 -38.5156 263.77 -37.5241 263.438 -36.5437L260.597 -37.5047C260.926 -38.4796 261.257 -39.4658 261.588 -40.4632L264.435 -39.5183ZM261.457 -30.7934C260.799 -28.9203 260.143 -27.0905 259.49 -25.3031L256.672 -26.3328C257.321 -28.1081 257.972 -29.9261 258.626 -31.7878L261.457 -30.7934ZM257.34 -19.5481C256.613 -17.6464 255.889 -15.7965 255.169 -13.9971L252.384 -15.1125C253.098 -16.8967 253.816 -18.7317 254.537 -20.619L257.34 -19.5481ZM252.89 -8.45047C252.085 -6.54081 251.283 -4.69326 250.485 -2.9058L247.746 -4.12861C248.535 -5.89636 249.328 -7.72483 250.126 -9.6161L252.89 -8.45047ZM247.992 2.51207C247.097 4.39609 246.207 6.20589 245.321 7.94435L242.648 6.58241C243.52 4.86986 244.398 3.08506 245.282 1.22501L247.992 2.51207ZM242.5 13.2708C241.504 15.0778 240.513 16.7969 239.528 18.4322L236.958 16.884C237.922 15.2833 238.894 13.5975 239.873 11.8224L242.5 13.2708ZM236.238 23.6163C235.063 25.3705 233.895 27.01 232.735 28.5419L230.344 26.7303C231.467 25.2475 232.601 23.6556 233.746 21.9467L236.238 23.6163ZM228.926 33.2212C227.512 34.8317 226.108 36.2907 224.713 37.6118L222.65 35.4337C223.974 34.1795 225.315 32.7872 226.672 31.2415L228.926 33.2212ZM220.009 41.5898C218.251 42.9026 216.509 44.0133 214.783 44.9506L213.351 42.3144C214.947 41.4478 216.567 40.4154 218.214 39.186L220.009 41.5898ZM209.097 47.47C207.067 48.1762 205.07 48.6749 203.108 49.0216L202.586 46.0674C204.405 45.746 206.245 45.2857 208.111 44.6365L209.097 47.47ZM196.962 49.6789C194.887 49.7735 192.857 49.7558 190.882 49.7004L190.966 46.7016C192.905 46.756 194.854 46.772 196.825 46.682L196.962 49.6789ZM184.891 49.4861C182.88 49.4251 180.937 49.406 179.043 49.5107L178.877 46.5153C180.898 46.4036 182.938 46.4255 184.982 46.4874L184.891 49.4861ZM173.406 50.3026C171.636 50.738 169.907 51.3747 168.212 52.2927L166.783 49.6547C168.724 48.6036 170.695 47.8798 172.69 47.3894L173.406 50.3026ZM163.659 55.5582C162.386 56.7178 161.118 58.0991 159.857 59.7455L157.475 57.9209C158.835 56.1469 160.222 54.6313 161.639 53.3403L163.659 55.5582ZM156.653 64.5479C155.739 66.1037 154.831 67.8193 153.928 69.7112L151.221 68.4188C152.157 66.4579 153.105 64.666 154.066 63.0292L156.653 64.5479ZM151.557 75.1249C150.849 76.8784 150.146 78.7502 149.446 80.748L146.615 79.7567C147.328 77.7184 148.048 75.8027 148.775 74.0023L151.557 75.1249ZM147.634 86.2409C147.066 88.0615 146.502 89.9708 145.941 91.9729L143.052 91.163C143.621 89.1351 144.193 87.1983 144.769 85.3486L147.634 86.2409ZM144.406 97.7079C143.934 99.5564 143.463 101.475 142.995 103.465L140.075 102.778C140.547 100.77 141.022 98.8331 141.5 96.965L144.406 97.7079ZM141.677 109.287C141.458 110.29 141.24 111.31 141.022 112.346L138.086 111.729C138.306 110.685 138.526 109.658 138.746 108.648L141.677 109.287ZM141.022 112.346C140.804 113.386 140.513 114.396 140.153 115.376L137.337 114.343C137.647 113.497 137.898 112.627 138.086 111.729L141.022 112.346ZM137.233 120.871C136.071 122.506 134.698 124.035 133.148 125.471L131.11 123.269C132.529 121.955 133.76 120.579 134.788 119.133L137.233 120.871ZM128.381 129.248C126.788 130.342 125.08 131.38 123.273 132.37L121.832 129.739C123.563 128.79 125.184 127.804 126.683 126.775L128.381 129.248ZM117.942 135.035C116.186 135.84 114.362 136.614 112.48 137.361L111.372 134.573C113.213 133.842 114.989 133.088 116.692 132.308L117.942 135.035ZM106.938 139.435C105.113 140.082 103.247 140.71 101.348 141.324L100.425 138.469C102.302 137.863 104.142 137.243 105.937 136.608L106.938 139.435ZM95.7258 143.077C93.8665 143.637 91.9837 144.189 90.0846 144.733L89.2573 141.85C91.1462 141.308 93.0158 140.76 94.8596 140.204L95.7258 143.077ZM84.4333 146.328C82.5562 146.85 80.6691 147.369 78.7794 147.887L77.9852 144.995C79.8742 144.476 81.7574 143.958 83.6294 143.437L84.4333 146.328ZM73.1302 149.44C71.2458 149.959 69.365 150.481 67.4932 151.009L66.6793 148.122C68.5584 147.592 70.4452 147.068 72.3327 146.548L73.1302 149.44ZM61.8765 152.622C59.9954 153.173 58.131 153.733 56.2895 154.304L55.4005 151.439C57.2594 150.862 59.139 150.298 61.0325 149.743L61.8765 152.622ZM50.7439 156.088C48.8789 156.711 47.0471 157.35 45.2555 158.008L44.2217 155.192C46.0441 154.523 47.9038 153.874 49.7928 153.243L50.7439 156.088ZM39.8469 160.107C38.0229 160.857 36.2554 161.633 34.5531 162.437L33.2715 159.725C35.0252 158.896 36.8399 158.1 38.7053 157.333L39.8469 160.107ZM29.4296 165.064C27.7111 166.023 26.0862 167.022 24.5656 168.064L22.8697 165.589C24.4747 164.489 26.1785 163.443 27.9668 162.445L29.4296 165.064ZM20.1002 171.526C18.6493 172.811 17.3493 174.154 16.2133 175.564L13.8778 173.681C15.1306 172.127 16.5496 170.663 18.1113 169.28L20.1002 171.526ZM13.2072 180.196C12.389 181.825 11.7622 183.541 11.3447 185.354L8.42123 184.68C8.89383 182.628 9.60359 180.687 10.5264 178.849L13.2072 180.196Z" fill="url(#paint0_linear_18_638)"/>
<defs>
<linearGradient id="paint0_linear_18_638" x1="70.1015" y1="-50.8119" x2="54.5214" y2="196.604" gradientUnits="userSpaceOnUse">
<stop stop-color="#FED7AA" stop-opacity="0"/>
<stop offset="1" stop-color="#FED7AA"/>
</linearGradient>
</defs>
</svg>
