<svg width="235" height="113" viewBox="0 0 235 113" fill="none" xmlns="http://www.w3.org/2000/svg">
<path d="M96.2683 44.7255L96.1094 46.2353L96.2683 44.7255ZM7.9999 112.173L16.9899 97.9106L0.103919 95.915L7.9999 112.173ZM234.012 1.38181C232.995 1.30109 231.991 1.22504 231.001 1.15357L231.02 4.21778C232.004 4.28875 233.001 4.3643 234.011 4.44449L234.012 1.38181ZM225.213 0.779235C223.243 0.66718 221.329 0.574684 219.469 0.501086L219.579 3.57038C221.422 3.64332 223.32 3.73502 225.275 3.8462L225.213 0.779235ZM213.683 0.328925C211.688 0.290176 209.761 0.275193 207.901 0.283L208.133 3.35445C209.97 3.34674 211.875 3.36153 213.849 3.39988L213.683 0.328925ZM202.22 0.382935C200.185 0.447703 198.238 0.542787 196.375 0.666619L196.778 3.73205C198.608 3.61043 200.524 3.51683 202.529 3.45301L202.22 0.382935ZM190.658 1.16279C188.669 1.37917 186.789 1.63316 185.011 1.92228L185.67 4.95853C187.397 4.67757 189.23 4.42982 191.175 4.21823L190.658 1.16279ZM179.398 3.02619C177.392 3.49683 175.541 4.0216 173.834 4.59547L174.913 7.52773C176.536 6.98237 178.306 6.47975 180.238 6.02645L179.398 3.02619ZM168.422 6.7936C166.524 7.72142 164.859 8.72959 163.393 9.80529L165.189 12.3659C166.52 11.3889 168.05 10.4602 169.818 9.59601L168.422 6.7936ZM159.036 13.8096C157.652 15.4131 156.559 17.0911 155.668 18.8016L158.261 20.4272C159.063 18.8875 160.039 17.3909 161.271 15.9639L159.036 13.8096ZM153.371 24.401C152.739 26.3433 152.229 28.2898 151.729 30.1191L154.547 31.1675C155.059 29.2955 155.544 27.4418 156.149 25.5858L153.371 24.401ZM150.017 35.5588C149.342 37.2789 148.531 38.8403 147.443 40.2186L149.755 42.2805C151.056 40.631 151.991 38.8065 152.736 36.9065L150.017 35.5588ZM143.579 43.5713C142.253 44.3546 140.662 45.0292 138.729 45.5602L139.667 48.5357C141.794 47.951 143.605 47.1919 145.157 46.2759L143.579 43.5713ZM133.359 46.545C131.676 46.729 129.819 46.8367 127.767 46.8586L128.017 49.9299C130.148 49.9072 132.095 49.7953 133.878 49.6002L133.359 46.545ZM122.134 46.7247C120.371 46.6293 118.494 46.4833 116.495 46.2834L116.437 49.3409C118.474 49.5447 120.394 49.6941 122.204 49.7921L122.134 46.7247ZM110.812 45.6122C108.971 45.3643 107.043 45.0774 105.022 44.7498L104.79 47.7846C106.835 48.1161 108.789 48.4068 110.657 48.6584L110.812 45.6122ZM99.4052 43.7771C98.4317 43.5984 97.4391 43.4113 96.4271 43.2157L96.1094 46.2353C97.1301 46.4326 98.1316 46.6213 99.1144 46.8017L99.4052 43.7771ZM96.4271 43.2157C95.4812 43.0329 94.5156 42.8859 93.5327 42.7733L93.4336 45.8265C94.3476 45.9311 95.2401 46.0672 96.1094 46.2353L96.4271 43.2157ZM87.7768 42.4965C85.9259 42.5205 84.0295 42.646 82.0993 42.8669L82.6314 45.9206C84.478 45.7093 86.2822 45.5904 88.0332 45.5677L87.7768 42.4965ZM76.528 43.7474C74.7328 44.1062 72.917 44.5389 71.089 45.0415L72.0268 48.0169C73.7973 47.5301 75.5516 47.1122 77.2817 46.7664L76.528 43.7474ZM65.7633 46.6908C64.0325 47.286 62.2972 47.9398 60.5642 48.649L61.8018 51.5223C63.4897 50.8315 65.178 50.1955 66.86 49.6171L65.7633 46.6908ZM55.4933 50.8859C53.8345 51.6709 52.1835 52.5048 50.5465 53.3849L52.0325 56.141C53.6304 55.2819 55.2413 54.4682 56.8593 53.7026L55.4933 50.8859ZM45.7379 56.1286C44.1612 57.0814 42.6035 58.0766 41.0706 59.1117L42.7821 61.7316C44.2782 60.7213 45.7988 59.7497 47.3381 58.8194L45.7379 56.1286ZM36.5562 62.3314C35.0744 63.447 33.6232 64.6005 32.2084 65.7894L34.1401 68.243C35.518 67.0851 36.9325 65.9608 38.3776 64.8728L36.5562 62.3314ZM28.0458 69.4912C26.6837 70.7742 25.3654 72.0917 24.0972 73.4412L26.2561 75.6799C27.4857 74.3714 28.7655 73.0922 30.0897 71.8449L28.0458 69.4912ZM20.388 77.6581C19.1837 79.1246 18.0401 80.6233 16.9646 82.1513L19.3647 84.0937C20.3995 82.6237 21.502 81.1786 22.6657 79.7615L20.388 77.6581ZM13.8846 86.9302C12.9068 88.5988 12.0123 90.2973 11.2099 92.0225L13.8592 93.5335C14.6216 91.8943 15.4742 90.2748 16.4097 88.6784L13.8846 86.9302ZM9.04105 97.4106C8.40426 99.2825 7.87961 101.181 7.47792 103.101L10.3391 103.972C10.7144 102.178 11.2062 100.397 11.8064 98.6324L9.04105 97.4106Z" fill="url(#paint0_linear_24_378)"/>
<defs>
<linearGradient id="paint0_linear_24_378" x1="198.854" y1="142.093" x2="11.8919" y2="96.2866" gradientUnits="userSpaceOnUse">
<stop stop-color="#FED7AA" stop-opacity="0"/>
<stop offset="1" stop-color="#F97316"/>
</linearGradient>
</defs>
</svg>
