<?xml version="1.0" encoding="UTF-8" standalone="no"?>
<!-- Created with Inkscape (http://www.inkscape.org/) -->

<svg
   width="127.99999"
   height="127.99999"
   viewBox="0 0 33.866664 33.866664"
   version="1.1"
   id="svg1"
   xmlns:xlink="http://www.w3.org/1999/xlink"
   xmlns="http://www.w3.org/2000/svg"
   xmlns:svg="http://www.w3.org/2000/svg">
  <defs
     id="defs1">
    <linearGradient
       id="linearGradient253">
      <stop
         style="stop-color:#0b0b10;stop-opacity:1;"
         offset="0"
         id="stop254" />
      <stop
         style="stop-color:#0b0b10;stop-opacity:0.96091008;"
         offset="1"
         id="stop255" />
    </linearGradient>
    <filter
       style="color-interpolation-filters:sRGB"
       id="filter86"
       x="-1.2086176"
       y="-0.96720351"
       width="3.3447066"
       height="3.019084">
      <feFlood
         result="flood"
         in="SourceGraphic"
         flood-opacity="1.000000"
         flood-color="rgb(255,255,255)"
         id="feFlood85" />
      <feGaussianBlur
         result="blur"
         in="SourceGraphic"
         stdDeviation="28.250832"
         id="feGaussianBlur85" />
      <feOffset
         result="offset"
         in="blur"
         dx="-4.328521"
         dy="5.935946"
         id="feOffset85" />
      <feComposite
         result="comp1"
         operator="out"
         in="flood"
         in2="offset"
         id="feComposite85" />
      <feComposite
         result="comp2"
         operator="in"
         in="comp1"
         in2="SourceGraphic"
         id="feComposite86" />
    </filter>
    <filter
       style="color-interpolation-filters:sRGB"
       id="filter186"
       x="-0.61019258"
       y="-0.43154326"
       width="2.1170885"
       height="2.0657136">
      <feFlood
         result="flood"
         in="SourceGraphic"
         flood-opacity="1.000000"
         flood-color="rgb(255,255,255)"
         id="feFlood185" />
      <feGaussianBlur
         result="blur"
         in="SourceGraphic"
         stdDeviation="12.604851"
         id="feGaussianBlur185" />
      <feOffset
         result="offset"
         in="blur"
         dx="-6.164761"
         dy="14.204373"
         id="feOffset185" />
      <feComposite
         result="comp1"
         operator="out"
         in="flood"
         in2="offset"
         id="feComposite185" />
      <feComposite
         result="comp2"
         operator="in"
         in="SourceGraphic"
         in2="comp1"
         id="feComposite186" />
    </filter>
    <filter
       style="color-interpolation-filters:sRGB"
       id="filter215"
       x="-0.0046119091"
       y="-0.0046119091"
       width="1.0092238"
       height="1.0092238">
      <feGaussianBlur
         stdDeviation="0.062498961"
         id="feGaussianBlur215" />
    </filter>
    <linearGradient
       xlink:href="#linearGradient253"
       id="linearGradient256"
       gradientUnits="userSpaceOnUse"
       x1="79.965248"
       y1="-35.121876"
       x2="128.67877"
       y2="-35.121876" />
  </defs>
  <g
     id="layer1">
    <g
       id="g10"
       style="stroke-width:1.45222"
       transform="matrix(0.68859892,0,0,0.68859892,-54.902689,41.118218)">
      <rect
         style="opacity:1;fill:url(#linearGradient256);fill-opacity:1;stroke:#000000;stroke-width:0.145223;stroke-linecap:round;stroke-linejoin:round;paint-order:stroke fill markers;filter:url(#filter215)"
         id="rect1"
         width="48.268299"
         height="48.268299"
         x="80.187859"
         y="-59.256023"
         ry="6.9794717" />
    </g>
  </g>
  <g
     id="layer3">
    <g
       id="g2"
       style="fill:#ffffff;stroke-width:2.72521;filter:url(#filter86)"
       transform="matrix(0.36694306,0,0,0.36694306,-67.610064,-20.808667)">
      <path
         d="m 226.12104,134.57357 -0.37647,-0.39658 5.70982,-28.81809 q 0.50197,-2.51167 0.87844,-4.49456 0.37647,-2.048998 0.81568,-4.560665 0.50197,-2.842151 -2.07059,-3.767503 l -1.00392,-0.330483 0.12549,-0.660965 11.98435,-3.701406 0.43922,0.462676 -4.26668,21.084796 q 3.13727,-3.43702 6.651,-5.68431 3.57648,-2.31338 6.58825,-2.31338 2.00785,0 3.26276,1.32194 1.31765,1.25584 1.31765,3.9658 0,1.38802 -0.25098,2.90824 -0.25099,1.45412 -0.62746,3.04044 l -3.13726,13.4837 q -0.25098,1.25583 -0.50196,2.18118 -0.25099,0.85925 -0.25099,1.38803 0,1.38802 1.12942,1.38802 1.63138,0 4.58041,-2.90824 l 0.5647,0.59486 q -1.50588,2.44558 -4.07844,4.42847 -2.57256,1.9829 -5.83531,1.9829 -2.0706,0 -3.20001,-0.99145 -1.12942,-1.05754 -1.12942,-2.90825 0,-1.38802 0.31373,-2.84215 0.31372,-1.52021 0.75295,-3.10654 l 2.82353,-11.63298 q 0.43922,-1.78462 0.75294,-3.23874 0.37648,-1.52022 0.37648,-2.57776 0,-2.31338 -2.0706,-2.31338 -3.07452,0 -8.09414,5.28772 l -1.88236,9.18742 q -0.81568,4.03189 -1.44314,7.33672 -0.56471,3.23873 -1.12942,6.80794 z"
         id="text4"
         style="font-style:italic;font-size:67.2734px;font-family:'DM Serif Display';-inkscape-font-specification:'DM Serif Display Italic';fill:#ffffff;stroke-width:0.272521;stroke-linecap:round;stroke-linejoin:round;paint-order:stroke fill markers"
         aria-label="h" />
      <path
         style="opacity:1;fill:#ffffff;stroke-width:2.72522"
         d="m 211.96358,133.80373 c 0.25415,-0.28048 2.25575,-2.30279 4.44803,-4.49405 2.19227,-2.19124 4.35208,-4.43812 4.79955,-4.99303 0.44748,-0.55491 1.0078,-1.15582 1.24516,-1.33539 0.40715,-0.30796 0.47506,-0.31137 1.20071,-0.0599 0.42302,0.14652 1.21293,0.55344 1.75536,0.90417 l 0.98623,0.63767 -0.22528,1.94726 c -0.3516,3.03966 -0.61213,3.64861 -1.93022,4.51201 -0.91775,0.60116 -5.54557,2.38148 -7.63005,2.93529 -1.43392,0.38097 -4.00786,0.65867 -4.7838,0.51614 -0.31254,-0.0578 -0.30667,-0.0828 0.13433,-0.57013 z m -6.04021,-7.67505 c 0.11605,-0.0698 2.15602,-1.4469 4.53323,-3.0605 2.37722,-1.61361 4.55257,-3.0211 4.83412,-3.12778 0.94773,-0.35909 1.89683,-0.0503 4.9771,1.61979 l 0.54077,0.2932 -0.62556,0.55077 c -3.93312,3.46298 -8.98773,5.16344 -12.91156,4.3437 -1.36879,-0.28613 -1.67156,-0.42502 -1.3481,-0.61918 z m -1.69949,-7.3154 c 3.1175,-1.40368 4.33277,-1.64892 6.23321,-1.25791 0.94066,0.19349 2.88401,0.90187 2.9049,1.05878 0.0193,0.14617 -0.97003,0.68649 -2.01069,1.09796 -1.86789,0.73858 -3.98525,1.02703 -5.94117,0.80936 -1.03754,-0.11544 -2.57019,-0.51375 -2.90022,-0.75377 -0.10837,-0.0789 0.41021,-0.36759 1.71404,-0.95466 z m 1.15894,-6.79472 c -1.02438,-1.02606 -2.33255,-2.70819 -3.48346,-4.47923 -0.99066,-1.52452 -3.17588,-5.60294 -3.59143,-6.70297 -0.32177,-0.851811 -0.69738,-1.036501 3.24572,1.59597 1.60796,1.07348 4.00956,2.67227 5.33691,3.55284 12.00386,7.9635 18.05362,12.00343 18.94387,12.65031 1.37091,0.99619 1.48791,1.26955 1.21484,2.83873 -0.20195,1.16083 -0.20852,1.17424 -0.51789,1.06457 -1.05271,-0.37316 -18.8568,-8.7379 -19.51935,-9.17053 -0.44508,-0.29064 -1.17821,-0.89802 -1.62921,-1.34969 z m -0.52325,-10.69795 c -2.62676,-3.170897 -5.19146,-9.383742 -6.64667,-16.101305 -0.24756,-1.142759 -0.27311,-1.50645 -0.0994,-1.414024 0.21056,0.112096 5.57612,5.112723 23.93313,22.305589 6.63425,6.21354 6.60043,6.17524 6.6889,7.57192 0.027,0.42684 -0.0839,1.45352 -0.24662,2.28152 -0.28103,1.43047 -0.30965,1.49885 -0.57344,1.37187 -0.34954,-0.16827 -20.62893,-13.92416 -21.6715,-14.70027 -0.42305,-0.31495 -1.04604,-0.90683 -1.38443,-1.3153 z m 21.04643,5.19831 c -2.02576,-1.89708 -7.50006,-7.011836 -12.1651,-11.36616 -9.65589,-9.012755 -8.98323,-8.270003 -10.52532,-11.622134 -2.41223,-5.24365 -4.60294,-12.92861 -4.89953,-17.187414 -0.0487,-0.698522 -0.0561,-1.272647 -0.0164,-1.275835 0.0397,-0.0038 5.51071,6.546392 12.15801,14.554559 21.47823,25.875434 19.74156,22.423374 20.17809,23.557344 0.39479,1.02553 -0.0992,2.95618 -0.43031,4.89801 -0.30376,1.78138 -0.39099,2.10256 -0.53439,1.96776 -0.0451,-0.0424 -1.73923,-1.62906 -3.76501,-3.52612 z"
         id="path5" />
    </g>
    <g
       id="g7"
       style="display:inline;opacity:0.083;mix-blend-mode:exclusion;fill:#ffffff;stroke-width:2.72521;filter:url(#filter186)"
       transform="matrix(0.36694306,0,0,0.36694306,-67.534584,-20.786298)">
      <path
         d="m 226.12104,134.57357 -0.37647,-0.39658 5.70982,-28.81809 q 0.50197,-2.51167 0.87844,-4.49456 0.37647,-2.048998 0.81568,-4.560665 0.50197,-2.842151 -2.07059,-3.767503 l -1.00392,-0.330483 0.12549,-0.660965 11.98435,-3.701406 0.43922,0.462676 -4.26668,21.084796 q 3.13727,-3.43702 6.651,-5.68431 3.57648,-2.31338 6.58825,-2.31338 2.00785,0 3.26276,1.32194 1.31765,1.25584 1.31765,3.9658 0,1.38802 -0.25098,2.90824 -0.25099,1.45412 -0.62746,3.04044 l -3.13726,13.4837 q -0.25098,1.25583 -0.50196,2.18118 -0.25099,0.85925 -0.25099,1.38803 0,1.38802 1.12942,1.38802 1.63138,0 4.58041,-2.90824 l 0.5647,0.59486 q -1.50588,2.44558 -4.07844,4.42847 -2.57256,1.9829 -5.83531,1.9829 -2.0706,0 -3.20001,-0.99145 -1.12942,-1.05754 -1.12942,-2.90825 0,-1.38802 0.31373,-2.84215 0.31372,-1.52021 0.75295,-3.10654 l 2.82353,-11.63298 q 0.43922,-1.78462 0.75294,-3.23874 0.37648,-1.52022 0.37648,-2.57776 0,-2.31338 -2.0706,-2.31338 -3.07452,0 -8.09414,5.28772 l -1.88236,9.18742 q -0.81568,4.03189 -1.44314,7.33672 -0.56471,3.23873 -1.12942,6.80794 z"
         id="path6"
         style="font-style:italic;font-size:67.2734px;font-family:'DM Serif Display';-inkscape-font-specification:'DM Serif Display Italic';fill:#ffffff;stroke-width:0.272521;stroke-linecap:round;stroke-linejoin:round;paint-order:stroke fill markers"
         aria-label="h" />
      <path
         style="opacity:1;fill:#ffffff;stroke-width:2.72522"
         d="m 211.96358,133.80373 c 0.25415,-0.28048 2.25575,-2.30279 4.44803,-4.49405 2.19227,-2.19124 4.35208,-4.43812 4.79955,-4.99303 0.44748,-0.55491 1.0078,-1.15582 1.24516,-1.33539 0.40715,-0.30796 0.47506,-0.31137 1.20071,-0.0599 0.42302,0.14652 1.21293,0.55344 1.75536,0.90417 l 0.98623,0.63767 -0.22528,1.94726 c -0.3516,3.03966 -0.61213,3.64861 -1.93022,4.51201 -0.91775,0.60116 -5.54557,2.38148 -7.63005,2.93529 -1.43392,0.38097 -4.00786,0.65867 -4.7838,0.51614 -0.31254,-0.0578 -0.30667,-0.0828 0.13433,-0.57013 z m -6.04021,-7.67505 c 0.11605,-0.0698 2.15602,-1.4469 4.53323,-3.0605 2.37722,-1.61361 4.55257,-3.0211 4.83412,-3.12778 0.94773,-0.35909 1.89683,-0.0503 4.9771,1.61979 l 0.54077,0.2932 -0.62556,0.55077 c -3.93312,3.46298 -8.98773,5.16344 -12.91156,4.3437 -1.36879,-0.28613 -1.67156,-0.42502 -1.3481,-0.61918 z m -1.69949,-7.3154 c 3.1175,-1.40368 4.33277,-1.64892 6.23321,-1.25791 0.94066,0.19349 2.88401,0.90187 2.9049,1.05878 0.0193,0.14617 -0.97003,0.68649 -2.01069,1.09796 -1.86789,0.73858 -3.98525,1.02703 -5.94117,0.80936 -1.03754,-0.11544 -2.57019,-0.51375 -2.90022,-0.75377 -0.10837,-0.0789 0.41021,-0.36759 1.71404,-0.95466 z m 1.15894,-6.79472 c -1.02438,-1.02606 -2.33255,-2.70819 -3.48346,-4.47923 -0.99066,-1.52452 -3.17588,-5.60294 -3.59143,-6.70297 -0.32177,-0.851811 -0.69738,-1.036501 3.24572,1.59597 1.60796,1.07348 4.00956,2.67227 5.33691,3.55284 12.00386,7.9635 18.05362,12.00343 18.94387,12.65031 1.37091,0.99619 1.48791,1.26955 1.21484,2.83873 -0.20195,1.16083 -0.20852,1.17424 -0.51789,1.06457 -1.05271,-0.37316 -18.8568,-8.7379 -19.51935,-9.17053 -0.44508,-0.29064 -1.17821,-0.89802 -1.62921,-1.34969 z m -0.52325,-10.69795 c -2.62676,-3.170897 -5.19146,-9.383742 -6.64667,-16.101305 -0.24756,-1.142759 -0.27311,-1.50645 -0.0994,-1.414024 0.21056,0.112096 5.57612,5.112723 23.93313,22.305589 6.63425,6.21354 6.60043,6.17524 6.6889,7.57192 0.027,0.42684 -0.0839,1.45352 -0.24662,2.28152 -0.28103,1.43047 -0.30965,1.49885 -0.57344,1.37187 -0.34954,-0.16827 -20.62893,-13.92416 -21.6715,-14.70027 -0.42305,-0.31495 -1.04604,-0.90683 -1.38443,-1.3153 z m 21.04643,5.19831 c -2.02576,-1.89708 -7.50006,-7.011836 -12.1651,-11.36616 -9.65589,-9.012755 -8.98323,-8.270003 -10.52532,-11.622134 -2.41223,-5.24365 -4.60294,-12.92861 -4.89953,-17.187414 -0.0487,-0.698522 -0.0561,-1.272647 -0.0164,-1.275835 0.0397,-0.0038 5.51071,6.546392 12.15801,14.554559 21.47823,25.875434 19.74156,22.423374 20.17809,23.557344 0.39479,1.02553 -0.0992,2.95618 -0.43031,4.89801 -0.30376,1.78138 -0.39099,2.10256 -0.53439,1.96776 -0.0451,-0.0424 -1.73923,-1.62906 -3.76501,-3.52612 z"
         id="path7" />
    </g>
  </g>
</svg>
